999
dxfrw 0.5.11
0
SECTION
2
HEADER
9
$ACADVER
1
AC1021
9
$HANDSEED
5
20000
9
$DWGCODEPAGE
3
ANSI_1252
9
$INSBASE
10
0
20
0
30
0
9
$EXTMIN
10
10
20
10
30
0
9
$EXTMAX
10
370
20
140
30
0
9
$LIMMIN
10
0
20
0
9
$LIMMAX
10
12
20
9
9
$ORTHOMODE
70
0
9
$LTSCALE
40
0.000394
9
$TEXTSTYLE
7
STANDARD
9
$CLAYER
8
0
9
$DIMASZ
40
0.18
9
$DIMLFAC
40
1
9
$DIMSCALE
40
1
9
$DIMEXO
40
0.0625
9
$DIMEXE
40
0.18
9
$DIMTXT
40
0.18
9
$DIMTSZ
40
0
9
$DIMAUNIT
70
0
9
$DIMADEC
70
0
9
$DIMLUNIT
70
2
9
$DIMSTYLE
2
STANDARD
9
$DIMGAP
40
0.09
9
$DIMTIH
70
1
9
$LUNITS
70
2
9
$LUPREC
70
4
9
$AUNITS
70
0
9
$AUPREC
70
0
9
$SPLINESEGS
70
8
9
$GRIDMODE
70
0
9
$SNAPSTYLE
70
0
9
$PINSBASE
10
0
20
0
30
0
9
$PLIMMIN
10
0
20
0
9
$PLIMMAX
10
12
20
9
9
$INSUNITS
70
0
9
$PSVPSCALE
40
1
0
ENDSEC
0
SECTION
2
CLASSES
0
ENDSEC
0
SECTION
2
TABLES
0
TABLE
2
VPORT
5
8
330
0
100
AcDbSymbolTable
70
1
0
VPORT
5
31
330
2
100
AcDbSymbolTableRecord
100
AcDbViewportTableRecord
2
*ACTIVE
70
0
10
0
20
0
11
1
21
1
12
253.687137331
22
111.520793037
13
0
23
0
14
10
24
10
15
10
25
10
16
0
26
0
36
1
17
0
27
0
37
0
40
286.871373308
41
1.98609355247
42
50
43
0
44
0
50
0
51
0
71
0
72
100
73
1
74
3
75
0
76
0
77
0
78
0
281
0
65
1
110
0
120
0
130
0
111
1
121
0
131
0
112
0
122
1
132
0
79
0
146
0
348
10020
60
7
61
5
292
1
282
1
141
0
142
0
63
250
421
3358443
0
ENDTAB
0
TABLE
2
LTYPE
5
5
330
0
100
AcDbSymbolTable
70
4
0
LTYPE
5
14
330
5
100
AcDbSymbolTableRecord
100
AcDbLinetypeTableRecord
2
ByBlock
70
0
3

72
65
73
0
40
0
0
LTYPE
5
15
330
5
100
AcDbSymbolTableRecord
100
AcDbLinetypeTableRecord
2
ByLayer
70
0
3

72
65
73
0
40
0
0
LTYPE
5
16
330
5
100
AcDbSymbolTableRecord
100
AcDbLinetypeTableRecord
2
Continuous
70
0
3
Solid line
72
65
73
0
40
0
0
LTYPE
5
32
330
5
100
AcDbSymbolTableRecord
100
AcDbLinetypeTableRecord
2
DOT
70
0
3
Dot . . . . . . . . . . . . . . . . . . . . . .
72
65
73
2
40
6.35
49
0
74
0
49
-6.35
74
0
0
LTYPE
5
33
330
5
100
AcDbSymbolTableRecord
100
AcDbLinetypeTableRecord
2
DOT2
70
0
3
Dot (.5x) .....................................
72
65
73
2
40
3.175
49
0
74
0
49
-3.175
74
0
0
LTYPE
5
34
330
5
100
AcDbSymbolTableRecord
100
AcDbLinetypeTableRecord
2
DOTX2
70
0
3
Dot (2x) .  .  .  .  .  .  .  .  .  .  .  .  .
72
65
73
2
40
12.7
49
0
74
0
49
-12.7
74
0
0
LTYPE
5
35
330
5
100
AcDbSymbolTableRecord
100
AcDbLinetypeTableRecord
2
DASHED
70
0
3
Dot . . . . . . . . . . . . . . . . . . . . . .
72
65
73
2
40
19.05
49
12.7
74
0
49
-6.35
74
0
0
LTYPE
5
36
330
5
100
AcDbSymbolTableRecord
100
AcDbLinetypeTableRecord
2
DASHED2
70
0
3
Dashed (.5x) _ _ _ _ _ _ _ _ _ _ _ _ _ _ _ _ _
72
65
73
2
40
9.525
49
6.35
74
0
49
-3.175
74
0
0
LTYPE
5
37
330
5
100
AcDbSymbolTableRecord
100
AcDbLinetypeTableRecord
2
DASHEDX2
70
0
3
Dashed (2x) ____  ____  ____  ____  ____  ___
72
65
73
2
40
38.1
49
25.4
74
0
49
-12.7
74
0
0
LTYPE
5
38
330
5
100
AcDbSymbolTableRecord
100
AcDbLinetypeTableRecord
2
DASHDOT
70
0
3
Dash dot __ . __ . __ . __ . __ . __ . __ . __
72
65
73
4
40
25.4
49
12.7
74
0
49
-6.35
74
0
49
0
74
0
49
-6.35
74
0
0
LTYPE
5
39
330
5
100
AcDbSymbolTableRecord
100
AcDbLinetypeTableRecord
2
DASHDOT2
70
0
3
Dash dot (.5x) _._._._._._._._._._._._._._._.
72
65
73
4
40
12.7
49
6.35
74
0
49
-3.175
74
0
49
0
74
0
49
-3.175
74
0
0
LTYPE
5
3A
330
5
100
AcDbSymbolTableRecord
100
AcDbLinetypeTableRecord
2
DASHDOTX2
70
0
3
Dash dot (2x) ____  .  ____  .  ____  .  ___
72
65
73
4
40
50.8
49
25.4
74
0
49
-12.7
74
0
49
0
74
0
49
-12.7
74
0
0
LTYPE
5
3B
330
5
100
AcDbSymbolTableRecord
100
AcDbLinetypeTableRecord
2
DIVIDE
70
0
3
Divide ____ . . ____ . . ____ . . ____ . . ____
72
65
73
6
40
31.75
49
12.7
74
0
49
-6.35
74
0
49
0
74
0
49
-6.35
74
0
49
0
74
0
49
-6.35
74
0
0
LTYPE
5
3C
330
5
100
AcDbSymbolTableRecord
100
AcDbLinetypeTableRecord
2
DIVIDE2
70
0
3
Divide (.5x) __..__..__..__..__..__..__..__.._
72
65
73
6
40
15.875
49
6.35
74
0
49
-3.175
74
0
49
0
74
0
49
-3.175
74
0
49
0
74
0
49
-3.175
74
0
0
LTYPE
5
3D
330
5
100
AcDbSymbolTableRecord
100
AcDbLinetypeTableRecord
2
DIVIDEX2
70
0
3
Divide (2x) ________  .  .  ________  .  .  _
72
65
73
6
40
63.5
49
25.4
74
0
49
-12.7
74
0
49
0
74
0
49
-12.7
74
0
49
0
74
0
49
-12.7
74
0
0
LTYPE
5
3E
330
5
100
AcDbSymbolTableRecord
100
AcDbLinetypeTableRecord
2
BORDER
70
0
3
Border __ __ . __ __ . __ __ . __ __ . __ __ .
72
65
73
6
40
44.45
49
12.7
74
0
49
-6.35
74
0
49
12.7
74
0
49
-6.35
74
0
49
0
74
0
49
-6.35
74
0
0
LTYPE
5
3F
330
5
100
AcDbSymbolTableRecord
100
AcDbLinetypeTableRecord
2
BORDER2
70
0
3
Border (.5x) __.__.__.__.__.__.__.__.__.__.__.
72
65
73
6
40
22.225
49
6.35
74
0
49
-3.175
74
0
49
6.35
74
0
49
-3.175
74
0
49
0
74
0
49
-3.175
74
0
0
LTYPE
5
40
330
5
100
AcDbSymbolTableRecord
100
AcDbLinetypeTableRecord
2
BORDERX2
70
0
3
Border (2x) ____  ____  .  ____  ____  .  ___
72
65
73
6
40
88.9
49
25.4
74
0
49
-12.7
74
0
49
25.4
74
0
49
-12.7
74
0
49
0
74
0
49
-12.7
74
0
0
LTYPE
5
41
330
5
100
AcDbSymbolTableRecord
100
AcDbLinetypeTableRecord
2
CENTER
70
0
3
Center ____ _ ____ _ ____ _ ____ _ ____ _ ____
72
65
73
4
40
50.8
49
31.75
74
0
49
-6.35
74
0
49
6.35
74
0
49
-6.35
74
0
0
LTYPE
5
42
330
5
100
AcDbSymbolTableRecord
100
AcDbLinetypeTableRecord
2
CENTER2
70
0
3
Center (.5x) ___ _ ___ _ ___ _ ___ _ ___ _ ___
72
65
73
4
40
28.575
49
19.05
74
0
49
-3.175
74
0
49
3.175
74
0
49
-3.175
74
0
0
LTYPE
5
43
330
5
100
AcDbSymbolTableRecord
100
AcDbLinetypeTableRecord
2
CENTERX2
70
0
3
Center (2x) ________  __  ________  __  _____
72
65
73
4
40
101.6
49
63.5
74
0
49
-12.7
74
0
49
12.7
74
0
49
-12.7
74
0
0
ENDTAB
0
TABLE
2
LAYER
5
2
330
0
100
AcDbSymbolTable
70
1
0
LAYER
5
10
330
2
100
AcDbSymbolTableRecord
100
AcDbLayerTableRecord
2
0
70
0
62
7
6
CONTINUOUS
370
-3
390
F
0
LAYER
5
44
330
2
100
AcDbSymbolTableRecord
100
AcDbLayerTableRecord
2
BACKGROUND
70
1
62
256
6
CONTINUOUS
370
-3
390
F
0
LAYER
5
45
330
2
100
AcDbSymbolTableRecord
100
AcDbLayerTableRecord
2
FOREGROUND
70
0
62
7
6
CONTINUOUS
370
-3
390
F
0
LAYER
5
46
330
2
100
AcDbSymbolTableRecord
100
AcDbLayerTableRecord
2
PLAN_1
70
0
62
7
6
CONTINUOUS
370
-3
390
F
0
LAYER
5
47
330
2
100
AcDbSymbolTableRecord
100
AcDbLayerTableRecord
2
SPLINE
70
0
62
7
6
CONTINUOUS
370
-3
390
F
0
ENDTAB
0
TABLE
2
STYLE
5
3
330
0
100
AcDbSymbolTable
70
3
0
STYLE
5
48
330
2
100
AcDbSymbolTableRecord
100
AcDbTextStyleTableRecord
2
Standard
70
0
40
0
41
1
50
0
71
0
42
1
3
txt
4

0
ENDTAB
0
TABLE
2
VIEW
5
6
330
0
100
AcDbSymbolTable
70
0
0
ENDTAB
0
TABLE
2
UCS
5
7
330
0
100
AcDbSymbolTable
70
0
0
ENDTAB
0
TABLE
2
APPID
5
9
330
0
100
AcDbSymbolTable
70
1
0
APPID
5
12
330
9
100
AcDbSymbolTableRecord
100
AcDbRegAppTableRecord
2
ACAD
70
0
0
ENDTAB
0
TABLE
2
DIMSTYLE
5
A
330
0
100
AcDbSymbolTable
70
1
100
AcDbDimStyleTable
71
1
0
DIMSTYLE
105
49
330
A
100
AcDbSymbolTableRecord
100
AcDbDimStyleTableRecord
2
Standard
70
0
40
1
41
0.18
42
0.0625
43
0.38
44
0.18
45
0
46
0
47
0
48
0
140
0.18
141
0.09
142
0
143
25.4
144
1
145
0
146
1
147
0.09
148
0
71
0
72
0
73
0
74
1
75
0
76
0
77
0
78
0
79
0
170
0
171
2
172
0
173
0
174
0
175
0
176
0
177
0
178
0
179
0
271
4
272
4
273
2
274
2
275
0
276
0
277
2
278
46
279
0
280
0
281
0
282
0
283
1
284
0
285
0
286
0
288
0
289
3
340
Standard
341

371
-2
372
-2
0
ENDTAB
0
TABLE
2
BLOCK_RECORD
5
1
330
0
100
AcDbSymbolTable
70
2
0
BLOCK_RECORD
5
1F
330
1
100
AcDbSymbolTableRecord
100
AcDbBlockTableRecord
2
*Model_Space
70
0
280
1
281
0
0
BLOCK_RECORD
5
1E
330
1
100
AcDbSymbolTableRecord
100
AcDbBlockTableRecord
2
*Paper_Space
70
0
280
1
281
0
0
ENDTAB
0
ENDSEC
0
SECTION
2
BLOCKS
0
BLOCK
5
20
330
1F
100
AcDbEntity
8
0
100
AcDbBlockBegin
2
*Model_Space
70
0
10
0
20
0
30
0
3
*Model_Space
1

0
ENDBLK
5
21
330
1F
100
AcDbEntity
8
0
100
AcDbBlockEnd
0
BLOCK
5
1C
330
1B
100
AcDbEntity
8
0
100
AcDbBlockBegin
2
*Paper_Space
70
0
10
0
20
0
30
0
3
*Paper_Space
1

0
ENDBLK
5
1D
330
1F
100
AcDbEntity
8
0
100
AcDbBlockEnd
0
ENDSEC
0
SECTION
2
ENTITIES
0
CIRCLE
5
4A
100
AcDbEntity
8
PLAN_1
6
ByLayer
62
7
370
-1
100
AcDbCircle
10
290
20
55
40
5
0
CIRCLE
5
4B
100
AcDbEntity
8
PLAN_1
6
ByLayer
62
7
370
-1
100
AcDbCircle
10
90
20
55
40
5
0
CIRCLE
5
4C
100
AcDbEntity
8
PLAN_1
6
ByLayer
62
7
370
-1
100
AcDbCircle
10
190
20
48
40
13
0
CIRCLE
5
4D
100
AcDbEntity
8
PLAN_1
6
ByLayer
62
7
370
-1
100
AcDbCircle
10
36
20
45
40
3.5
0
CIRCLE
5
4E
100
AcDbEntity
8
PLAN_1
6
ByLayer
62
7
370
-1
100
AcDbCircle
10
344
20
45
40
3.5
0
LWPOLYLINE
5
4F
100
AcDbEntity
8
0
6
ByLayer
62
7
370
-1
100
AcDbPolyline
90
5
70
0
43
0
10
26
20
54.806595
10
26
20
34.806595
10
46
20
34.806595
10
46
20
54.806595
10
26
20
54.806595
0
LWPOLYLINE
5
50
100
AcDbEntity
8
0
6
ByLayer
62
7
370
-1
100
AcDbPolyline
90
5
70
0
43
0
10
354
20
34.603653
10
354
20
54.603653
10
334
20
54.603653
10
334
20
34.603653
10
354
20
34.603653
0
CIRCLE
5
51
100
AcDbEntity
8
PLAN_1
6
ByLayer
62
7
370
-1
100
AcDbCircle
10
205.468933
20
63.490524
40
1.60028
0
CIRCLE
5
52
100
AcDbEntity
8
PLAN_1
6
ByLayer
62
7
370
-1
100
AcDbCircle
10
174.531036
20
63.5
40
1.60028
0
CIRCLE
5
53
100
AcDbEntity
8
PLAN_1
6
ByLayer
62
7
370
-1
100
AcDbCircle
10
174.544296
20
32.5
40
1.60107
0
CIRCLE
5
54
100
AcDbEntity
8
PLAN_1
6
ByLayer
62
7
370
-1
100
AcDbCircle
10
205.455673
20
32.509445
40
1.60027
0
CIRCLE
5
55
100
AcDbEntity
8
PLAN_1
6
ByLayer
62
7
370
-1
100
AcDbCircle
10
290
20
125
40
5
0
CIRCLE
5
56
100
AcDbEntity
8
PLAN_1
6
ByLayer
62
7
370
-1
100
AcDbCircle
10
90
20
125
40
5
0
CIRCLE
5
57
100
AcDbEntity
8
PLAN_1
6
ByLayer
62
7
370
-1
100
AcDbCircle
10
190
20
118
40
11
0
CIRCLE
5
58
100
AcDbEntity
8
PLAN_1
6
ByLayer
62
7
370
-1
100
AcDbCircle
10
36
20
115
40
3.5
0
CIRCLE
5
59
100
AcDbEntity
8
PLAN_1
6
ByLayer
62
7
370
-1
100
AcDbCircle
10
344
20
115
40
3.5
0
LWPOLYLINE
5
5A
100
AcDbEntity
8
0
6
ByLayer
62
7
370
-1
100
AcDbPolyline
90
5
70
0
43
0
10
26
20
124.80658
10
26
20
104.806564
10
46
20
104.806564
10
46
20
124.80658
10
26
20
124.80658
0
LWPOLYLINE
5
5B
100
AcDbEntity
8
0
6
ByLayer
62
7
370
-1
100
AcDbPolyline
90
5
70
0
43
0
10
354
20
104.603683
10
354
20
124.603699
10
334
20
124.603699
10
334
20
104.603683
10
354
20
104.603683
0
CIRCLE
5
5C
100
AcDbEntity
8
PLAN_1
6
ByLayer
62
7
370
-1
100
AcDbCircle
10
190
20
118
40
7
0
LWPOLYLINE
5
5D
100
AcDbEntity
8
0
6
ByLayer
62
7
370
-1
100
AcDbPolyline
90
121
70
0
43
0
10
15
20
140
10
14.56422
20
139.980988
10
14.13175
20
139.924042
10
13.7059
20
139.82962
10
13.28989
20
139.698456
10
12.8869
20
139.531525
10
12.49999
20
139.330139
10
12.13211
20
139.095764
10
11.78606
20
138.830231
10
11.46446
20
138.535522
10
11.16977
20
138.213928
10
10.90423
20
137.867889
10
10.66987
20
137.5
10
10.46846
20
137.113098
10
10.30153
20
136.710114
10
10.17037
20
136.294098
10
10.07596
20
135.868225
10
10.01902
20
135.435791
10
10
20
135
10
10
20
85
10
10.01902
20
84.564194
10
10.07596
20
84.131744
10
10.17037
20
83.705902
10
10.30153
20
83.289886
10
10.46846
20
82.886902
10
10.66987
20
82.5
10
10.90423
20
82.132111
10
11.16977
20
81.786072
10
11.46446
20
81.464478
10
11.78606
20
81.169754
10
12.13211
20
80.904236
10
12.5
20
80.669861
10
12.8869
20
80.468475
10
13.28989
20
80.301544
10
13.7059
20
80.170364
10
14.13175
20
80.075943
10
14.56422
20
80.019012
10
15
20
80
10
65
20
80
10
65.435768
20
80.019012
10
65.86824
20
80.075943
10
66.29409
20
80.170364
10
66.710091
20
80.301544
10
67.113091
20
80.468475
10
67.5
20
80.669861
10
67.867882
20
80.904236
10
68.213928
20
81.169754
10
68.53553
20
81.464478
10
68.830223
20
81.786072
10
69.095749
20
82.132111
10
69.330116
20
82.5
10
69.531532
20
82.886902
10
69.698463
20
83.289886
10
69.82962
20
83.705902
10
69.924042
20
84.131744
10
69.980972
20
84.564194
10
70
20
85
10
70
20
90
10
310
20
90
10
310
20
85
10
310.019012
20
84.564194
10
310.075958
20
84.131744
10
310.17038
20
83.705902
10
310.301544
20
83.289886
10
310.468475
20
82.886902
10
310.669861
20
82.5
10
310.904236
20
82.132111
10
311.169769
20
81.786072
10
311.464478
20
81.464478
10
311.786072
20
81.169754
10
312.132111
20
80.904236
10
312.5
20
80.669861
10
312.886902
20
80.468475
10
313.289886
20
80.301544
10
313.705902
20
80.170364
10
314.131744
20
80.075943
10
314.564209
20
80.019012
10
315
20
80
10
365
20
80
10
365.435791
20
80.019012
10
365.868256
20
80.075943
10
366.294098
20
80.170364
10
366.710114
20
80.301544
10
367.113098
20
80.468475
10
367.5
20
80.669861
10
367.867889
20
80.904236
10
368.213928
20
81.169754
10
368.535522
20
81.464478
10
368.830231
20
81.786072
10
369.095764
20
82.132111
10
369.330139
20
82.5
10
369.531525
20
82.886902
10
369.698456
20
83.289886
10
369.82962
20
83.705902
10
369.924042
20
84.131744
10
369.980988
20
84.564194
10
370
20
85
10
370
20
135
10
369.980988
20
135.435791
10
369.924042
20
135.868256
10
369.82962
20
136.294098
10
369.698456
20
136.710114
10
369.531525
20
137.113098
10
369.330139
20
137.5
10
369.095764
20
137.867889
10
368.830231
20
138.213928
10
368.535522
20
138.535522
10
368.213928
20
138.830231
10
367.867889
20
139.095764
10
367.5
20
139.330139
10
367.113098
20
139.531525
10
366.710114
20
139.698456
10
366.294098
20
139.82962
10
365.868256
20
139.924042
10
365.435791
20
139.980988
10
365
20
140
10
330
20
140
10
330
20
135
10
50
20
135
10
50
20
140
10
15
20
140
0
LWPOLYLINE
5
5E
100
AcDbEntity
8
0
6
ByLayer
62
7
370
-1
100
AcDbPolyline
90
121
70
0
43
0
10
15
20
70
10
14.56422
20
69.980988
10
14.13175
20
69.924042
10
13.7059
20
69.82962
10
13.28989
20
69.698456
10
12.8869
20
69.531525
10
12.49999
20
69.330124
10
12.13211
20
69.095764
10
11.78606
20
68.830231
10
11.46446
20
68.535522
10
11.16977
20
68.213913
10
10.90423
20
67.867874
10
10.66987
20
67.5
10
10.46846
20
67.113083
10
10.30153
20
66.710114
10
10.17037
20
66.294083
10
10.07596
20
65.868225
10
10.01902
20
65.435791
10
10
20
65
10
10
20
15
10
10.01902
20
14.564194
10
10.07596
20
14.131744
10
10.17037
20
13.705902
10
10.30153
20
13.289886
10
10.46846
20
12.886902
10
10.66987
20
12.5
10
10.90423
20
12.132111
10
11.16977
20
11.786072
10
11.46446
20
11.464478
10
11.78606
20
11.169754
10
12.13211
20
10.904236
10
12.5
20
10.669861
10
12.8869
20
10.468475
10
13.28989
20
10.301544
10
13.7059
20
10.170364
10
14.13175
20
10.075943
10
14.56422
20
10.019012
10
15
20
10
10
65
20
10
10
65.435768
20
10.019012
10
65.86824
20
10.075943
10
66.29409
20
10.170364
10
66.710091
20
10.301544
10
67.113091
20
10.468475
10
67.5
20
10.669861
10
67.867882
20
10.904236
10
68.213928
20
11.169754
10
68.53553
20
11.464478
10
68.830223
20
11.786072
10
69.095749
20
12.132111
10
69.330116
20
12.5
10
69.531532
20
12.886902
10
69.698463
20
13.289886
10
69.82962
20
13.705902
10
69.924042
20
14.131744
10
69.980972
20
14.564194
10
70
20
15
10
70
20
20
10
310
20
20
10
310
20
15
10
310.019012
20
14.564194
10
310.075958
20
14.131744
10
310.17038
20
13.705902
10
310.301544
20
13.289886
10
310.468475
20
12.886902
10
310.669861
20
12.5
10
310.904236
20
12.132111
10
311.169769
20
11.786072
10
311.464478
20
11.464478
10
311.786072
20
11.169754
10
312.132111
20
10.904236
10
312.5
20
10.669861
10
312.886902
20
10.468475
10
313.289886
20
10.301544
10
313.705902
20
10.170364
10
314.131744
20
10.075943
10
314.564209
20
10.019012
10
315
20
10
10
365
20
10
10
365.435791
20
10.019012
10
365.868256
20
10.075943
10
366.294098
20
10.170364
10
366.710114
20
10.301544
10
367.113098
20
10.468475
10
367.5
20
10.669861
10
367.867889
20
10.904236
10
368.213928
20
11.169754
10
368.535522
20
11.464478
10
368.830231
20
11.786072
10
369.095764
20
12.132111
10
369.330139
20
12.5
10
369.531525
20
12.886902
10
369.698456
20
13.289886
10
369.82962
20
13.705902
10
369.924042
20
14.131744
10
369.980988
20
14.564194
10
370
20
15
10
370
20
65
10
369.980988
20
65.435791
10
369.924042
20
65.868256
10
369.82962
20
66.294083
10
369.698456
20
66.710114
10
369.531525
20
67.113083
10
369.330139
20
67.5
10
369.095764
20
67.867874
10
368.830231
20
68.213913
10
368.535522
20
68.535522
10
368.213928
20
68.830231
10
367.867889
20
69.095764
10
367.5
20
69.330124
10
367.113098
20
69.531525
10
366.710114
20
69.698456
10
366.294098
20
69.82962
10
365.868256
20
69.924042
10
365.435791
20
69.980988
10
365
20
70
10
330
20
70
10
330
20
65
10
50
20
65
10
50
20
70
10
15
20
70
0
ENDSEC
0
SECTION
2
OBJECTS
0
DICTIONARY
5
C
330
0
100
AcDbDictionary
281
1
3
ACAD_GROUP
350
D
0
DICTIONARY
5
D
330
C
100
AcDbDictionary
281
1
0
ENDSEC
0
EOF
