999
dxfrw 0.5.13
0
SECTION
2
HEADER
9
$ACADVER
1
AC1009
9
$DWGCODEPAGE
3
ANSI_1252
9
$INSBASE
10
0
20
0
30
0
9
$EXTMIN
10
-1
20
-3.13984949152e-16
30
0
9
$EXTMAX
10
41
20
60
30
0
9
$LIMMIN
10
0
20
0
9
$LIMMAX
10
420
20
297
9
$ORTHOMODE
70
0
9
$LTSCALE
40
1
9
$TEXTSTYLE
7
STANDARD
9
$CLAYER
8
MILL: 1 MILLDEPTH: -0.1 SLICEDEPTH: 0.1 FEEDXY: 200 FEEDZ: 40 TOOLNR: 4
9
$DIMASZ
40
2.5
9
$DIMLFAC
40
1
9
$DIMSCALE
40
1
9
$DIMEXO
40
0.625
9
$DIMEXE
40
1.25
9
$DIMTXT
40
2.5
9
$DIMTSZ
40
0
9
$DIMUNIT
70
2
9
$DIMSTYLE
2
STANDARD
9
$DIMGAP
40
0.625
9
$DIMTIH
70
0
9
$LUNITS
70
2
9
$LUPREC
70
2
9
$AUNITS
70
0
9
$AUPREC
70
2
9
$GRIDMODE
70
1
9
$SNAPSTYLE
70
0
9
$GRIDUNIT
10
0
20
0
9
$PLIMMIN
10
0
20
0
9
$PLIMMAX
10
210
20
297
0
ENDSEC
0
SECTION
2
CLASSES
0
ENDSEC
0
SECTION
2
TABLES
0
TABLE
2
VPORT
70
1
0
VPORT
2
*ACTIVE
70
0
10
0
20
0
11
1
21
1
12
41.2642140467
22
31.9464882942
13
0
23
0
14
10
24
10
15
10
25
10
16
0
26
0
36
1
17
0
27
0
37
0
40
103.293645485
41
1.5704467354
42
50
43
0
44
0
50
0
51
0
71
0
72
100
73
1
74
3
75
0
76
1
77
0
78
0
0
ENDTAB
0
TABLE
2
LTYPE
70
4
0
LTYPE
2
BYBLOCK
70
0
3

72
65
73
0
40
0
0
LTYPE
2
BYLAYER
70
0
3

72
65
73
0
40
0
0
LTYPE
2
CONTINUOUS
70
0
3
Solid line
72
65
73
0
40
0
0
LTYPE
2
DOT
70
0
3
Dot . . . . . . . . . . . . . . . . . . . . . .
72
65
73
2
40
6.35
49
0
49
-6.35
0
LTYPE
2
DOT2
70
0
3
Dot (.5x) .....................................
72
65
73
2
40
3.175
49
0
49
-3.175
0
LTYPE
2
DOTX2
70
0
3
Dot (2x) .  .  .  .  .  .  .  .  .  .  .  .  .
72
65
73
2
40
12.7
49
0
49
-12.7
0
LTYPE
2
DASHED
70
0
3
Dot . . . . . . . . . . . . . . . . . . . . . .
72
65
73
2
40
19.05
49
12.7
49
-6.35
0
LTYPE
2
DASHED2
70
0
3
Dashed (.5x) _ _ _ _ _ _ _ _ _ _ _ _ _ _ _ _ _
72
65
73
2
40
9.525
49
6.35
49
-3.175
0
LTYPE
2
DASHEDX2
70
0
3
Dashed (2x) ____  ____  ____  ____  ____  ___
72
65
73
2
40
38.1
49
25.4
49
-12.7
0
LTYPE
2
DASHDOT
70
0
3
Dash dot __ . __ . __ . __ . __ . __ . __ . __
72
65
73
4
40
25.4
49
12.7
49
-6.35
49
0
49
-6.35
0
LTYPE
2
DASHDOT2
70
0
3
Dash dot (.5x) _._._._._._._._._._._._._._._.
72
65
73
4
40
12.7
49
6.35
49
-3.175
49
0
49
-3.175
0
LTYPE
2
DASHDOTX2
70
0
3
Dash dot (2x) ____  .  ____  .  ____  .  ___
72
65
73
4
40
50.8
49
25.4
49
-12.7
49
0
49
-12.7
0
LTYPE
2
DIVIDE
70
0
3
Divide ____ . . ____ . . ____ . . ____ . . ____
72
65
73
6
40
31.75
49
12.7
49
-6.35
49
0
49
-6.35
49
0
49
-6.35
0
LTYPE
2
DIVIDE2
70
0
3
Divide (.5x) __..__..__..__..__..__..__..__.._
72
65
73
6
40
15.875
49
6.35
49
-3.175
49
0
49
-3.175
49
0
49
-3.175
0
LTYPE
2
DIVIDEX2
70
0
3
Divide (2x) ________  .  .  ________  .  .  _
72
65
73
6
40
63.5
49
25.4
49
-12.7
49
0
49
-12.7
49
0
49
-12.7
0
LTYPE
2
BORDER
70
0
3
Border __ __ . __ __ . __ __ . __ __ . __ __ .
72
65
73
6
40
44.45
49
12.7
49
-6.35
49
12.7
49
-6.35
49
0
49
-6.35
0
LTYPE
2
BORDER2
70
0
3
Border (.5x) __.__.__.__.__.__.__.__.__.__.__.
72
65
73
6
40
22.225
49
6.35
49
-3.175
49
6.35
49
-3.175
49
0
49
-3.175
0
LTYPE
2
BORDERX2
70
0
3
Border (2x) ____  ____  .  ____  ____  .  ___
72
65
73
6
40
88.9
49
25.4
49
-12.7
49
25.4
49
-12.7
49
0
49
-12.7
0
LTYPE
2
CENTER
70
0
3
Center ____ _ ____ _ ____ _ ____ _ ____ _ ____
72
65
73
4
40
50.8
49
31.75
49
-6.35
49
6.35
49
-6.35
0
LTYPE
2
CENTER2
70
0
3
Center (.5x) ___ _ ___ _ ___ _ ___ _ ___ _ ___
72
65
73
4
40
28.575
49
19.05
49
-3.175
49
3.175
49
-3.175
0
LTYPE
2
CENTERX2
70
0
3
Center (2x) ________  __  ________  __  _____
72
65
73
4
40
101.6
49
63.5
49
-12.7
49
12.7
49
-12.7
0
ENDTAB
0
TABLE
2
LAYER
70
1
0
LAYER
2
0
70
0
62
7
6
CONTINUOUS
1001
LibreCad
1070
1
0
LAYER
2
BREAKS: 3 MILLDEPTH: -2 FEEDXY: 200 FEEDZ: 40
70
0
62
7
6
CONTINUOUS
0
LAYER
2
MILL: 1 MILLDEPTH: -0.1 SLICEDEPTH: 0.1 FEEDXY: 200 FEEDZ: 40 TOOLNR: 4
70
0
62
136
6
CONTINUOUS
0
LAYER
2
MILL: 2 MILLDEPTH: -2.5 SLICEDEPTH: 0.5 FEEDXY: 200 FEEDZ: 40 T: 1
70
0
62
136
6
CONTINUOUS
0
LAYER
2
MILL: 3 MILLDEPTH: -2.5 SLICEDEPTH: 0.5 FEEDXY: 200 FEEDZ: 40 T: 1
70
0
62
3
6
CONTINUOUS
0
ENDTAB
0
TABLE
2
STYLE
70
3
0
STYLE
2
STANDARD
70
0
40
0
41
1
50
0
71
0
42
1
3
TXT
4

0
ENDTAB
0
TABLE
2
VIEW
70
0
0
ENDTAB
0
TABLE
2
UCS
70
0
0
ENDTAB
0
TABLE
2
APPID
70
1
0
APPID
2
ACAD
70
0
0
APPID
2
LIBRECAD
70
0
0
ENDTAB
0
TABLE
2
DIMSTYLE
70
1
0
DIMSTYLE
2
STANDARD
70
0
3

4

5

6

7

40
1
41
2.5
42
0.625
43
0.38
44
1.25
45
0
46
0
47
0
48
0
140
2.5
141
0.09
142
0
143
25.4
144
1
145
0
146
1
147
0.625
71
0
72
0
73
0
74
1
75
0
76
0
77
0
78
0
170
0
171
2
172
0
173
0
174
0
175
0
176
0
177
0
178
0
0
ENDTAB
0
ENDSEC
0
SECTION
2
BLOCKS
0
BLOCK
8
0
2
$MODEL_SPACE
70
0
10
0
20
0
30
0
3
$MODEL_SPACE
1

0
ENDBLK
8
0
0
BLOCK
8
0
2
$PAPER_SPACE
70
0
10
0
20
0
30
0
3
$PAPER_SPACE
1

0
ENDBLK
8
0
0
ENDSEC
0
SECTION
2
ENTITIES
0
LINE
5
31
8
MILL: 3 MILLDEPTH: -2.5 SLICEDEPTH: 0.5 FEEDXY: 200 FEEDZ: 40 T: 1
6
BYLAYER
62
256
10
0
20
60
11
0
21
0
0
LINE
5
32
8
MILL: 1 MILLDEPTH: -0.1 SLICEDEPTH: 0.1 FEEDXY: 200 FEEDZ: 40 TOOLNR: 4
6
BYLAYER
62
256
10
5
20
48
11
5
21
52
0
LINE
5
33
8
MILL: 1 MILLDEPTH: -0.1 SLICEDEPTH: 0.1 FEEDXY: 200 FEEDZ: 40 TOOLNR: 4
6
BYLAYER
62
256
10
5
20
52
11
6.11111111111
21
52
0
ARC
5
34
8
MILL: 1 MILLDEPTH: -0.1 SLICEDEPTH: 0.1 FEEDXY: 200 FEEDZ: 40 TOOLNR: 4
6
BYLAYER
62
256
10
6.11111111111
20
50.8888888889
40
1.11111111111
50
270
51
90
0
LINE
5
35
8
MILL: 1 MILLDEPTH: -0.1 SLICEDEPTH: 0.1 FEEDXY: 200 FEEDZ: 40 TOOLNR: 4
6
BYLAYER
62
256
10
6.11111111111
20
49.7777777778
11
5
21
49.7777777778
0
LINE
5
36
8
MILL: 1 MILLDEPTH: -0.1 SLICEDEPTH: 0.1 FEEDXY: 200 FEEDZ: 40 TOOLNR: 4
6
BYLAYER
62
256
10
7.22222222222
20
48
11
6.32387111111
21
49.7983377778
0
LINE
5
37
8
MILL: 1 MILLDEPTH: -0.1 SLICEDEPTH: 0.1 FEEDXY: 200 FEEDZ: 40 TOOLNR: 4
6
BYLAYER
62
256
10
10.3333333333
20
48
11
9.22222222222
21
48
0
ARC
5
38
8
MILL: 1 MILLDEPTH: -0.1 SLICEDEPTH: 0.1 FEEDXY: 200 FEEDZ: 40 TOOLNR: 4
6
BYLAYER
62
256
10
9.22222172417
20
48.6666661686
40
0.666666168617
50
179.999957196
51
270.000042804
0
LINE
5
39
8
MILL: 1 MILLDEPTH: -0.1 SLICEDEPTH: 0.1 FEEDXY: 200 FEEDZ: 40 TOOLNR: 4
6
BYLAYER
62
256
10
8.55555555556
20
48.6666666667
11
8.55555555556
21
49.7777777778
0
ARC
5
3A
8
MILL: 1 MILLDEPTH: -0.1 SLICEDEPTH: 0.1 FEEDXY: 200 FEEDZ: 40 TOOLNR: 4
6
BYLAYER
62
256
10
9.44444444444
20
49.7777777778
40
0.888888888889
50
0
51
180
0
LINE
5
3B
8
MILL: 1 MILLDEPTH: -0.1 SLICEDEPTH: 0.1 FEEDXY: 200 FEEDZ: 40 TOOLNR: 4
6
BYLAYER
62
256
10
10.3333333333
20
49.7777777778
11
10.3333333333
21
49.3333333333
0
LINE
5
3C
8
MILL: 1 MILLDEPTH: -0.1 SLICEDEPTH: 0.1 FEEDXY: 200 FEEDZ: 40 TOOLNR: 4
6
BYLAYER
62
256
10
10.3333333333
20
49.3333333333
11
8.55555555556
21
49.3333333333
0
ARC
5
3D
8
MILL: 1 MILLDEPTH: -0.1 SLICEDEPTH: 0.1 FEEDXY: 200 FEEDZ: 40 TOOLNR: 4
6
BYLAYER
62
256
10
12.8879942845
20
51.467301898
40
3.4673020134
50
249.375524082
51
270.01478298
0
ARC
5
3E
8
MILL: 1 MILLDEPTH: -0.1 SLICEDEPTH: 0.1 FEEDXY: 200 FEEDZ: 40 TOOLNR: 4
6
BYLAYER
62
256
10
12.8888934905
20
48.5555530111
40
0.555553011074
50
269.999525421
51
64.2329219197
0
LINE
5
3F
8
MILL: 1 MILLDEPTH: -0.1 SLICEDEPTH: 0.1 FEEDXY: 200 FEEDZ: 40 TOOLNR: 4
6
BYLAYER
62
256
10
13.1304
20
49.0558666667
11
11.9807111111
21
49.6108
0
ARC
5
40
8
MILL: 1 MILLDEPTH: -0.1 SLICEDEPTH: 0.1 FEEDXY: 200 FEEDZ: 40 TOOLNR: 4
6
BYLAYER
62
256
10
12.2202516667
20
50.1115633333
40
0.55510683095
50
89.796607162
51
244.435840178
0
ARC
5
41
8
MILL: 1 MILLDEPTH: -0.1 SLICEDEPTH: 0.1 FEEDXY: 200 FEEDZ: 40 TOOLNR: 4
6
BYLAYER
62
256
10
12.2162172299
20
48.2785330901
40
2.38814112635
50
65.086455246
51
89.8559293357
0
LINE
5
42
8
MILL: 1 MILLDEPTH: -0.1 SLICEDEPTH: 0.1 FEEDXY: 200 FEEDZ: 40 TOOLNR: 4
6
BYLAYER
62
256
10
16.5555576127
20
48
11
15.4444465016
21
48
0
ARC
5
43
8
MILL: 1 MILLDEPTH: -0.1 SLICEDEPTH: 0.1 FEEDXY: 200 FEEDZ: 40 TOOLNR: 4
6
BYLAYER
62
256
10
15.4444460035
20
48.6666661686
40
0.666666168617
50
179.999957196
51
270.000042804
0
LINE
5
44
8
MILL: 1 MILLDEPTH: -0.1 SLICEDEPTH: 0.1 FEEDXY: 200 FEEDZ: 40 TOOLNR: 4
6
BYLAYER
62
256
10
14.7777798349
20
48.6666666667
11
14.7777798349
21
49.7777777778
0
ARC
5
45
8
MILL: 1 MILLDEPTH: -0.1 SLICEDEPTH: 0.1 FEEDXY: 200 FEEDZ: 40 TOOLNR: 4
6
BYLAYER
62
256
10
15.6666687238
20
49.7777777778
40
0.888888888889
50
0
51
180
0
LINE
5
46
8
MILL: 1 MILLDEPTH: -0.1 SLICEDEPTH: 0.1 FEEDXY: 200 FEEDZ: 40 TOOLNR: 4
6
BYLAYER
62
256
10
16.5555576127
20
49.7777777778
11
16.5555576127
21
49.3333333333
0
LINE
5
47
8
MILL: 1 MILLDEPTH: -0.1 SLICEDEPTH: 0.1 FEEDXY: 200 FEEDZ: 40 TOOLNR: 4
6
BYLAYER
62
256
10
16.5555576127
20
49.3333333333
11
14.7777798349
21
49.3333333333
0
LINE
5
48
8
MILL: 1 MILLDEPTH: -0.1 SLICEDEPTH: 0.1 FEEDXY: 200 FEEDZ: 40 TOOLNR: 4
6
BYLAYER
62
256
10
18.3333353905
20
48
11
18.3333353905
21
52
0
LINE
5
49
8
MILL: 1 MILLDEPTH: -0.1 SLICEDEPTH: 0.1 FEEDXY: 200 FEEDZ: 40 TOOLNR: 4
6
BYLAYER
62
256
10
17.888890946
20
50.6666666667
11
19.2222242794
21
50.6666666667
0
LINE
5
4A
8
MILL: 1 MILLDEPTH: -0.1 SLICEDEPTH: 0.1 FEEDXY: 200 FEEDZ: 40 TOOLNR: 4
6
BYLAYER
62
256
10
5
20
31
11
5
21
35
0
LINE
5
4B
8
MILL: 1 MILLDEPTH: -0.1 SLICEDEPTH: 0.1 FEEDXY: 200 FEEDZ: 40 TOOLNR: 4
6
BYLAYER
62
256
10
5
20
35
11
6.11111111111
21
35
0
ARC
5
4C
8
MILL: 1 MILLDEPTH: -0.1 SLICEDEPTH: 0.1 FEEDXY: 200 FEEDZ: 40 TOOLNR: 4
6
BYLAYER
62
256
10
6.11111111111
20
33.8888888889
40
1.11111111111
50
270
51
90
0
LINE
5
4D
8
MILL: 1 MILLDEPTH: -0.1 SLICEDEPTH: 0.1 FEEDXY: 200 FEEDZ: 40 TOOLNR: 4
6
BYLAYER
62
256
10
6.11111111111
20
32.7777777778
11
5
21
32.7777777778
0
LINE
5
4E
8
MILL: 1 MILLDEPTH: -0.1 SLICEDEPTH: 0.1 FEEDXY: 200 FEEDZ: 40 TOOLNR: 4
6
BYLAYER
62
256
10
8.77777777778
20
33.6666666667
11
9.66666666667
21
33.6666666667
0
ARC
5
4F
8
MILL: 1 MILLDEPTH: -0.1 SLICEDEPTH: 0.1 FEEDXY: 200 FEEDZ: 40 TOOLNR: 4
6
BYLAYER
62
256
10
9.66666716472
20
33.0000004981
40
0.666666168617
50
359.999957196
51
90.0000428043
0
LINE
5
50
8
MILL: 1 MILLDEPTH: -0.1 SLICEDEPTH: 0.1 FEEDXY: 200 FEEDZ: 40 TOOLNR: 4
6
BYLAYER
62
256
10
10.3333333333
20
33
11
10.3333333333
21
31
0
LINE
5
51
8
MILL: 1 MILLDEPTH: -0.1 SLICEDEPTH: 0.1 FEEDXY: 200 FEEDZ: 40 TOOLNR: 4
6
BYLAYER
62
256
10
10.3333333333
20
31
11
9.22222222222
21
31
0
ARC
5
52
8
MILL: 1 MILLDEPTH: -0.1 SLICEDEPTH: 0.1 FEEDXY: 200 FEEDZ: 40 TOOLNR: 4
6
BYLAYER
62
256
10
9.22222222222
20
31.6666666667
40
0.666666666667
50
90
51
270
0
LINE
5
53
8
MILL: 1 MILLDEPTH: -0.1 SLICEDEPTH: 0.1 FEEDXY: 200 FEEDZ: 40 TOOLNR: 4
6
BYLAYER
62
256
10
9.22222222222
20
32.3333333333
11
10.3333333333
21
32.3333333333
0
LINE
5
54
8
MILL: 1 MILLDEPTH: -0.1 SLICEDEPTH: 0.1 FEEDXY: 200 FEEDZ: 40 TOOLNR: 4
6
BYLAYER
62
256
10
11.6666666667
20
33.6666666667
11
11.6666666667
21
31.6666666667
0
ARC
5
55
8
MILL: 1 MILLDEPTH: -0.1 SLICEDEPTH: 0.1 FEEDXY: 200 FEEDZ: 40 TOOLNR: 4
6
BYLAYER
62
256
10
12.3333328353
20
31.6666661686
40
0.666666168617
50
179.999957196
51
270.000042804
0
LINE
5
56
8
MILL: 1 MILLDEPTH: -0.1 SLICEDEPTH: 0.1 FEEDXY: 200 FEEDZ: 40 TOOLNR: 4
6
BYLAYER
62
256
10
12.3333333333
20
31
11
13.4444444444
21
31
0
LINE
5
57
8
MILL: 1 MILLDEPTH: -0.1 SLICEDEPTH: 0.1 FEEDXY: 200 FEEDZ: 40 TOOLNR: 4
6
BYLAYER
62
256
10
13.4444444444
20
31
11
13.4444444444
21
33.6666666667
0
ARC
5
58
8
MILL: 1 MILLDEPTH: -0.1 SLICEDEPTH: 0.1 FEEDXY: 200 FEEDZ: 40 TOOLNR: 4
6
BYLAYER
62
256
10
15.9991053956
20
34.467301898
40
3.4673020134
50
249.375524082
51
270.01478298
0
ARC
5
59
8
MILL: 1 MILLDEPTH: -0.1 SLICEDEPTH: 0.1 FEEDXY: 200 FEEDZ: 40 TOOLNR: 4
6
BYLAYER
62
256
10
16.0000046016
20
31.5555530111
40
0.555553011074
50
269.999525421
51
64.2329219197
0
LINE
5
5A
8
MILL: 1 MILLDEPTH: -0.1 SLICEDEPTH: 0.1 FEEDXY: 200 FEEDZ: 40 TOOLNR: 4
6
BYLAYER
62
256
10
16.2415111111
20
32.0558666667
11
15.0918222222
21
32.6108
0
ARC
5
5B
8
MILL: 1 MILLDEPTH: -0.1 SLICEDEPTH: 0.1 FEEDXY: 200 FEEDZ: 40 TOOLNR: 4
6
BYLAYER
62
256
10
15.3313627778
20
33.1115633333
40
0.55510683095
50
89.796607162
51
244.435840178
0
ARC
5
5C
8
MILL: 1 MILLDEPTH: -0.1 SLICEDEPTH: 0.1 FEEDXY: 200 FEEDZ: 40 TOOLNR: 4
6
BYLAYER
62
256
10
15.327328341
20
31.2785330901
40
2.38814112635
50
65.086455246
51
89.8559293357
0
LINE
5
5D
8
MILL: 1 MILLDEPTH: -0.1 SLICEDEPTH: 0.1 FEEDXY: 200 FEEDZ: 40 TOOLNR: 4
6
BYLAYER
62
256
10
19.6666687238
20
31
11
18.5555576127
21
31
0
ARC
5
5E
8
MILL: 1 MILLDEPTH: -0.1 SLICEDEPTH: 0.1 FEEDXY: 200 FEEDZ: 40 TOOLNR: 4
6
BYLAYER
62
256
10
18.5555571147
20
31.6666661686
40
0.666666168617
50
179.999957196
51
270.000042804
0
LINE
5
5F
8
MILL: 1 MILLDEPTH: -0.1 SLICEDEPTH: 0.1 FEEDXY: 200 FEEDZ: 40 TOOLNR: 4
6
BYLAYER
62
256
10
17.888890946
20
31.6666666667
11
17.888890946
21
32.7777777778
0
ARC
5
60
8
MILL: 1 MILLDEPTH: -0.1 SLICEDEPTH: 0.1 FEEDXY: 200 FEEDZ: 40 TOOLNR: 4
6
BYLAYER
62
256
10
18.7777798349
20
32.7777777778
40
0.888888888889
50
0
51
180
0
LINE
5
61
8
MILL: 1 MILLDEPTH: -0.1 SLICEDEPTH: 0.1 FEEDXY: 200 FEEDZ: 40 TOOLNR: 4
6
BYLAYER
62
256
10
19.6666687238
20
32.7777777778
11
19.6666687238
21
32.3333333333
0
LINE
5
62
8
MILL: 1 MILLDEPTH: -0.1 SLICEDEPTH: 0.1 FEEDXY: 200 FEEDZ: 40 TOOLNR: 4
6
BYLAYER
62
256
10
19.6666687238
20
32.3333333333
11
17.888890946
21
32.3333333333
0
LINE
5
63
8
MILL: 1 MILLDEPTH: -0.1 SLICEDEPTH: 0.1 FEEDXY: 200 FEEDZ: 40 TOOLNR: 4
6
BYLAYER
62
256
10
5
20
6
11
5
21
10
0
LINE
5
64
8
MILL: 1 MILLDEPTH: -0.1 SLICEDEPTH: 0.1 FEEDXY: 200 FEEDZ: 40 TOOLNR: 4
6
BYLAYER
62
256
10
5
20
10
11
6.11111111111
21
10
0
ARC
5
65
8
MILL: 1 MILLDEPTH: -0.1 SLICEDEPTH: 0.1 FEEDXY: 200 FEEDZ: 40 TOOLNR: 4
6
BYLAYER
62
256
10
6.11111111111
20
8.88888888889
40
1.11111111111
50
270
51
90
0
LINE
5
66
8
MILL: 1 MILLDEPTH: -0.1 SLICEDEPTH: 0.1 FEEDXY: 200 FEEDZ: 40 TOOLNR: 4
6
BYLAYER
62
256
10
6.11111111111
20
7.77777777778
11
5
21
7.77777777778
0
LINE
5
67
8
MILL: 1 MILLDEPTH: -0.1 SLICEDEPTH: 0.1 FEEDXY: 200 FEEDZ: 40 TOOLNR: 4
6
BYLAYER
62
256
10
7.22222222222
20
6
11
6.32387111111
21
7.79833777778
0
LINE
5
68
8
MILL: 1 MILLDEPTH: -0.1 SLICEDEPTH: 0.1 FEEDXY: 200 FEEDZ: 40 TOOLNR: 4
6
BYLAYER
62
256
10
10.3333333333
20
6
11
9.22222222222
21
6
0
ARC
5
69
8
MILL: 1 MILLDEPTH: -0.1 SLICEDEPTH: 0.1 FEEDXY: 200 FEEDZ: 40 TOOLNR: 4
6
BYLAYER
62
256
10
9.22222172417
20
6.66666616862
40
0.666666168617
50
179.999957196
51
270.000042804
0
LINE
5
6A
8
MILL: 1 MILLDEPTH: -0.1 SLICEDEPTH: 0.1 FEEDXY: 200 FEEDZ: 40 TOOLNR: 4
6
BYLAYER
62
256
10
8.55555555556
20
6.66666666667
11
8.55555555556
21
7.77777777778
0
ARC
5
6B
8
MILL: 1 MILLDEPTH: -0.1 SLICEDEPTH: 0.1 FEEDXY: 200 FEEDZ: 40 TOOLNR: 4
6
BYLAYER
62
256
10
9.44444444444
20
7.77777777778
40
0.888888888889
50
0
51
180
0
LINE
5
6C
8
MILL: 1 MILLDEPTH: -0.1 SLICEDEPTH: 0.1 FEEDXY: 200 FEEDZ: 40 TOOLNR: 4
6
BYLAYER
62
256
10
10.3333333333
20
7.77777777778
11
10.3333333333
21
7.33333333333
0
LINE
5
6D
8
MILL: 1 MILLDEPTH: -0.1 SLICEDEPTH: 0.1 FEEDXY: 200 FEEDZ: 40 TOOLNR: 4
6
BYLAYER
62
256
10
10.3333333333
20
7.33333333333
11
8.55555555556
21
7.33333333333
0
LINE
5
6E
8
MILL: 1 MILLDEPTH: -0.1 SLICEDEPTH: 0.1 FEEDXY: 200 FEEDZ: 40 TOOLNR: 4
6
BYLAYER
62
256
10
11.6666666667
20
4.66666666667
11
11.6666666667
21
8.66666666667
0
LINE
5
6F
8
MILL: 1 MILLDEPTH: -0.1 SLICEDEPTH: 0.1 FEEDXY: 200 FEEDZ: 40 TOOLNR: 4
6
BYLAYER
62
256
10
11.6666666667
20
8.66666666667
11
12.7777777778
21
8.66666666667
0
ARC
5
70
8
MILL: 1 MILLDEPTH: -0.1 SLICEDEPTH: 0.1 FEEDXY: 200 FEEDZ: 40 TOOLNR: 4
6
BYLAYER
62
256
10
12.7777623424
20
7.99998456462
40
0.666682102223
50
0.00132654225952
51
89.9986734577
0
LINE
5
71
8
MILL: 1 MILLDEPTH: -0.1 SLICEDEPTH: 0.1 FEEDXY: 200 FEEDZ: 40 TOOLNR: 4
6
BYLAYER
62
256
10
13.4444444444
20
8
11
13.4444444444
21
6.66666666667
0
ARC
5
72
8
MILL: 1 MILLDEPTH: -0.1 SLICEDEPTH: 0.1 FEEDXY: 200 FEEDZ: 40 TOOLNR: 4
6
BYLAYER
62
256
10
12.7777623424
20
6.66668210204
40
0.666682102223
50
270.001326542
51
359.998673458
0
LINE
5
73
8
MILL: 1 MILLDEPTH: -0.1 SLICEDEPTH: 0.1 FEEDXY: 200 FEEDZ: 40 TOOLNR: 4
6
BYLAYER
62
256
10
12.7777777778
20
6
11
11.6666666667
21
6
0
LINE
5
74
8
MILL: 1 MILLDEPTH: -0.1 SLICEDEPTH: 0.1 FEEDXY: 200 FEEDZ: 40 TOOLNR: 4
6
BYLAYER
62
256
10
14.7777777778
20
6
11
14.7777777778
21
8.66666666667
0
LINE
5
75
8
MILL: 1 MILLDEPTH: -0.1 SLICEDEPTH: 0.1 FEEDXY: 200 FEEDZ: 40 TOOLNR: 4
6
BYLAYER
62
256
10
14.7777777778
20
8.66666666667
11
16.1111111111
21
8.66666666667
0
LINE
5
76
8
MILL: 1 MILLDEPTH: -0.1 SLICEDEPTH: 0.1 FEEDXY: 200 FEEDZ: 40 TOOLNR: 4
6
BYLAYER
62
256
10
16.1111111111
20
8.66666666667
11
16.1111111111
21
8.22222222222
0
LINE
5
77
8
MILL: 1 MILLDEPTH: -0.1 SLICEDEPTH: 0.1 FEEDXY: 200 FEEDZ: 40 TOOLNR: 4
6
BYLAYER
62
256
10
17.4444444444
20
6
11
17.4444444444
21
8.66666666667
0
LINE
5
78
8
MILL: 1 MILLDEPTH: -0.1 SLICEDEPTH: 0.1 FEEDXY: 200 FEEDZ: 40 TOOLNR: 4
6
BYLAYER
62
256
10
17.4444444444
20
9.77777777778
11
17.4444444444
21
10
0
ARC
5
79
8
MILL: 1 MILLDEPTH: -0.1 SLICEDEPTH: 0.1 FEEDXY: 200 FEEDZ: 40 TOOLNR: 4
6
BYLAYER
62
256
10
19.9991053956
20
9.46730189799
40
3.4673020134
50
249.375524082
51
270.01478298
0
ARC
5
7A
8
MILL: 1 MILLDEPTH: -0.1 SLICEDEPTH: 0.1 FEEDXY: 200 FEEDZ: 40 TOOLNR: 4
6
BYLAYER
62
256
10
20.0000046016
20
6.55555301105
40
0.555553011074
50
269.999525421
51
64.2329219197
0
LINE
5
7B
8
MILL: 1 MILLDEPTH: -0.1 SLICEDEPTH: 0.1 FEEDXY: 200 FEEDZ: 40 TOOLNR: 4
6
BYLAYER
62
256
10
20.2415111111
20
7.05586666667
11
19.0918222222
21
7.6108
0
ARC
5
7C
8
MILL: 1 MILLDEPTH: -0.1 SLICEDEPTH: 0.1 FEEDXY: 200 FEEDZ: 40 TOOLNR: 4
6
BYLAYER
62
256
10
19.3313627778
20
8.11156333333
40
0.55510683095
50
89.796607162
51
244.435840178
0
ARC
5
7D
8
MILL: 1 MILLDEPTH: -0.1 SLICEDEPTH: 0.1 FEEDXY: 200 FEEDZ: 40 TOOLNR: 4
6
BYLAYER
62
256
10
19.327328341
20
6.27853309012
40
2.38814112635
50
65.086455246
51
89.8559293357
0
LINE
5
7E
8
MILL: 1 MILLDEPTH: -0.1 SLICEDEPTH: 0.1 FEEDXY: 200 FEEDZ: 40 TOOLNR: 4
6
BYLAYER
62
256
10
23.6666687238
20
6
11
22.5555576127
21
6
0
ARC
5
7F
8
MILL: 1 MILLDEPTH: -0.1 SLICEDEPTH: 0.1 FEEDXY: 200 FEEDZ: 40 TOOLNR: 4
6
BYLAYER
62
256
10
22.5555571147
20
6.66666616862
40
0.666666168617
50
179.999957196
51
270.000042804
0
LINE
5
80
8
MILL: 1 MILLDEPTH: -0.1 SLICEDEPTH: 0.1 FEEDXY: 200 FEEDZ: 40 TOOLNR: 4
6
BYLAYER
62
256
10
21.888890946
20
6.66666666667
11
21.888890946
21
7.77777777778
0
ARC
5
81
8
MILL: 1 MILLDEPTH: -0.1 SLICEDEPTH: 0.1 FEEDXY: 200 FEEDZ: 40 TOOLNR: 4
6
BYLAYER
62
256
10
22.7777798349
20
7.77777777778
40
0.888888888889
50
0
51
180
0
LINE
5
82
8
MILL: 1 MILLDEPTH: -0.1 SLICEDEPTH: 0.1 FEEDXY: 200 FEEDZ: 40 TOOLNR: 4
6
BYLAYER
62
256
10
23.6666687238
20
7.77777777778
11
23.6666687238
21
7.33333333333
0
LINE
5
83
8
MILL: 1 MILLDEPTH: -0.1 SLICEDEPTH: 0.1 FEEDXY: 200 FEEDZ: 40 TOOLNR: 4
6
BYLAYER
62
256
10
23.6666687238
20
7.33333333333
11
21.888890946
21
7.33333333333
0
CIRCLE
5
84
8
MILL: 2 MILLDEPTH: -2.5 SLICEDEPTH: 0.5 FEEDXY: 200 FEEDZ: 40 T: 1
6
BYLAYER
62
256
10
30
20
8
40
2
0
CIRCLE
5
85
8
MILL: 2 MILLDEPTH: -2.5 SLICEDEPTH: 0.5 FEEDXY: 200 FEEDZ: 40 T: 1
6
BYLAYER
62
256
10
30
20
33
40
2
0
CIRCLE
5
86
8
MILL: 2 MILLDEPTH: -2.5 SLICEDEPTH: 0.5 FEEDXY: 200 FEEDZ: 40 T: 1
6
BYLAYER
62
256
10
30
20
50
40
2
0
ARC
5
87
8
MILL: 3 MILLDEPTH: -2.5 SLICEDEPTH: 0.5 FEEDXY: 200 FEEDZ: 40 T: 1
6
BYLAYER
62
256
10
36
20
56
40
4
50
0
51
90
0
LINE
5
88
8
MILL: 3 MILLDEPTH: -2.5 SLICEDEPTH: 0.5 FEEDXY: 200 FEEDZ: 40 T: 1
6
BYLAYER
62
256
10
36.0000004298
20
60
11
0
21
60
0
ARC
5
89
8
MILL: 3 MILLDEPTH: -2.5 SLICEDEPTH: 0.5 FEEDXY: 200 FEEDZ: 40 T: 1
6
BYLAYER
62
256
10
36
20
4
40
4
50
270
51
360
0
LINE
5
8A
8
MILL: 3 MILLDEPTH: -2.5 SLICEDEPTH: 0.5 FEEDXY: 200 FEEDZ: 40 T: 1
6
BYLAYER
62
256
10
0
20
0
11
36.0000002924
21
-3.13984949152e-16
0
LINE
5
8B
8
MILL: 3 MILLDEPTH: -2.5 SLICEDEPTH: 0.5 FEEDXY: 200 FEEDZ: 40 T: 1
6
BYLAYER
62
256
10
40
20
3.99999940872
11
40
21
56.0000004298
0
LINE
5
8C
8
BREAKS: 3 MILLDEPTH: -2 FEEDXY: 200 FEEDZ: 40
6
BYLAYER
62
256
10
-1
20
56
11
1
21
56
0
LINE
5
8D
8
BREAKS: 3 MILLDEPTH: -2 FEEDXY: 200 FEEDZ: 40
6
BYLAYER
62
256
10
1
20
56
11
1
21
54
0
LINE
5
8E
8
BREAKS: 3 MILLDEPTH: -2 FEEDXY: 200 FEEDZ: 40
6
BYLAYER
62
256
10
1
20
54
11
-1
21
54
0
LINE
5
8F
8
BREAKS: 3 MILLDEPTH: -2 FEEDXY: 200 FEEDZ: 40
6
BYLAYER
62
256
10
-1
20
54
11
-1
21
56
0
LINE
5
90
8
BREAKS: 3 MILLDEPTH: -2 FEEDXY: 200 FEEDZ: 40
6
BYLAYER
62
256
10
-1
20
6
11
1
21
6
0
LINE
5
91
8
BREAKS: 3 MILLDEPTH: -2 FEEDXY: 200 FEEDZ: 40
6
BYLAYER
62
256
10
1
20
6
11
1
21
4
0
LINE
5
92
8
BREAKS: 3 MILLDEPTH: -2 FEEDXY: 200 FEEDZ: 40
6
BYLAYER
62
256
10
1
20
4
11
-1
21
4
0
LINE
5
93
8
BREAKS: 3 MILLDEPTH: -2 FEEDXY: 200 FEEDZ: 40
6
BYLAYER
62
256
10
-1
20
4
11
-1
21
6
0
LINE
5
94
8
BREAKS: 3 MILLDEPTH: -2 FEEDXY: 200 FEEDZ: 40
6
BYLAYER
62
256
10
39
20
34
11
41
21
34
0
LINE
5
95
8
BREAKS: 3 MILLDEPTH: -2 FEEDXY: 200 FEEDZ: 40
6
BYLAYER
62
256
10
41
20
34
11
41
21
32
0
LINE
5
96
8
BREAKS: 3 MILLDEPTH: -2 FEEDXY: 200 FEEDZ: 40
6
BYLAYER
62
256
10
41
20
32
11
39
21
32
0
LINE
5
97
8
BREAKS: 3 MILLDEPTH: -2 FEEDXY: 200 FEEDZ: 40
6
BYLAYER
62
256
10
39
20
32
11
39
21
34
0
ENDSEC
0
EOF
