999
dxfrw 0.5.11
0
SECTION
2
HEADER
9
$ACADVER
1
AC1021
9
$HANDSEED
5
20000
9
$DWGCODEPAGE
3
ANSI_1252
9
$INSBASE
10
0
20
0
30
0
9
$EXTMIN
10
30
20
20
30
0
9
$EXTMAX
10
340
20
276
30
0
9
$LIMMIN
10
0
20
0
9
$LIMMAX
10
12
20
9
9
$ORTHOMODE
70
0
9
$LTSCALE
40
0.000394
9
$TEXTSTYLE
7
STANDARD
9
$CLAYER
8
0
9
$DIMASZ
40
0.18
9
$DIMLFAC
40
1
9
$DIMSCALE
40
1
9
$DIMEXO
40
0.0625
9
$DIMEXE
40
0.18
9
$DIMTXT
40
0.18
9
$DIMTSZ
40
0
9
$DIMAUNIT
70
0
9
$DIMADEC
70
0
9
$DIMLUNIT
70
2
9
$DIMSTYLE
2
STANDARD
9
$DIMGAP
40
0.09
9
$DIMTIH
70
1
9
$LUNITS
70
2
9
$LUPREC
70
4
9
$AUNITS
70
0
9
$AUPREC
70
0
9
$SPLINESEGS
70
8
9
$GRIDMODE
70
0
9
$SNAPSTYLE
70
0
9
$PINSBASE
10
0
20
0
30
0
9
$PLIMMIN
10
0
20
0
9
$PLIMMAX
10
12
20
9
9
$INSUNITS
70
0
9
$PSVPSCALE
40
1
0
ENDSEC
0
SECTION
2
CLASSES
0
ENDSEC
0
SECTION
2
TABLES
0
TABLE
2
VPORT
5
8
330
0
100
AcDbSymbolTable
70
1
0
VPORT
5
31
330
2
100
AcDbSymbolTableRecord
100
AcDbViewportTableRecord
2
*ACTIVE
70
0
10
0
20
0
11
1
21
1
12
193.306122449
22
139.972789116
13
0
23
0
14
10
24
10
15
10
25
10
16
0
26
0
36
1
17
0
27
0
37
0
40
264.707482993
41
1.52302631579
42
50
43
0
44
0
50
0
51
0
71
0
72
100
73
1
74
3
75
0
76
0
77
0
78
0
281
0
65
1
110
0
120
0
130
0
111
1
121
0
131
0
112
0
122
1
132
0
79
0
146
0
348
10020
60
7
61
5
292
1
282
1
141
0
142
0
63
250
421
3358443
0
ENDTAB
0
TABLE
2
LTYPE
5
5
330
0
100
AcDbSymbolTable
70
4
0
LTYPE
5
14
330
5
100
AcDbSymbolTableRecord
100
AcDbLinetypeTableRecord
2
ByBlock
70
0
3

72
65
73
0
40
0
0
LTYPE
5
15
330
5
100
AcDbSymbolTableRecord
100
AcDbLinetypeTableRecord
2
ByLayer
70
0
3

72
65
73
0
40
0
0
LTYPE
5
16
330
5
100
AcDbSymbolTableRecord
100
AcDbLinetypeTableRecord
2
Continuous
70
0
3
Solid line
72
65
73
0
40
0
0
LTYPE
5
32
330
5
100
AcDbSymbolTableRecord
100
AcDbLinetypeTableRecord
2
DOT
70
0
3
Dot . . . . . . . . . . . . . . . . . . . . . .
72
65
73
2
40
6.35
49
0
74
0
49
-6.35
74
0
0
LTYPE
5
33
330
5
100
AcDbSymbolTableRecord
100
AcDbLinetypeTableRecord
2
DOT2
70
0
3
Dot (.5x) .....................................
72
65
73
2
40
3.175
49
0
74
0
49
-3.175
74
0
0
LTYPE
5
34
330
5
100
AcDbSymbolTableRecord
100
AcDbLinetypeTableRecord
2
DOTX2
70
0
3
Dot (2x) .  .  .  .  .  .  .  .  .  .  .  .  .
72
65
73
2
40
12.7
49
0
74
0
49
-12.7
74
0
0
LTYPE
5
35
330
5
100
AcDbSymbolTableRecord
100
AcDbLinetypeTableRecord
2
DASHED
70
0
3
Dot . . . . . . . . . . . . . . . . . . . . . .
72
65
73
2
40
19.05
49
12.7
74
0
49
-6.35
74
0
0
LTYPE
5
36
330
5
100
AcDbSymbolTableRecord
100
AcDbLinetypeTableRecord
2
DASHED2
70
0
3
Dashed (.5x) _ _ _ _ _ _ _ _ _ _ _ _ _ _ _ _ _
72
65
73
2
40
9.525
49
6.35
74
0
49
-3.175
74
0
0
LTYPE
5
37
330
5
100
AcDbSymbolTableRecord
100
AcDbLinetypeTableRecord
2
DASHEDX2
70
0
3
Dashed (2x) ____  ____  ____  ____  ____  ___
72
65
73
2
40
38.1
49
25.4
74
0
49
-12.7
74
0
0
LTYPE
5
38
330
5
100
AcDbSymbolTableRecord
100
AcDbLinetypeTableRecord
2
DASHDOT
70
0
3
Dash dot __ . __ . __ . __ . __ . __ . __ . __
72
65
73
4
40
25.4
49
12.7
74
0
49
-6.35
74
0
49
0
74
0
49
-6.35
74
0
0
LTYPE
5
39
330
5
100
AcDbSymbolTableRecord
100
AcDbLinetypeTableRecord
2
DASHDOT2
70
0
3
Dash dot (.5x) _._._._._._._._._._._._._._._.
72
65
73
4
40
12.7
49
6.35
74
0
49
-3.175
74
0
49
0
74
0
49
-3.175
74
0
0
LTYPE
5
3A
330
5
100
AcDbSymbolTableRecord
100
AcDbLinetypeTableRecord
2
DASHDOTX2
70
0
3
Dash dot (2x) ____  .  ____  .  ____  .  ___
72
65
73
4
40
50.8
49
25.4
74
0
49
-12.7
74
0
49
0
74
0
49
-12.7
74
0
0
LTYPE
5
3B
330
5
100
AcDbSymbolTableRecord
100
AcDbLinetypeTableRecord
2
DIVIDE
70
0
3
Divide ____ . . ____ . . ____ . . ____ . . ____
72
65
73
6
40
31.75
49
12.7
74
0
49
-6.35
74
0
49
0
74
0
49
-6.35
74
0
49
0
74
0
49
-6.35
74
0
0
LTYPE
5
3C
330
5
100
AcDbSymbolTableRecord
100
AcDbLinetypeTableRecord
2
DIVIDE2
70
0
3
Divide (.5x) __..__..__..__..__..__..__..__.._
72
65
73
6
40
15.875
49
6.35
74
0
49
-3.175
74
0
49
0
74
0
49
-3.175
74
0
49
0
74
0
49
-3.175
74
0
0
LTYPE
5
3D
330
5
100
AcDbSymbolTableRecord
100
AcDbLinetypeTableRecord
2
DIVIDEX2
70
0
3
Divide (2x) ________  .  .  ________  .  .  _
72
65
73
6
40
63.5
49
25.4
74
0
49
-12.7
74
0
49
0
74
0
49
-12.7
74
0
49
0
74
0
49
-12.7
74
0
0
LTYPE
5
3E
330
5
100
AcDbSymbolTableRecord
100
AcDbLinetypeTableRecord
2
BORDER
70
0
3
Border __ __ . __ __ . __ __ . __ __ . __ __ .
72
65
73
6
40
44.45
49
12.7
74
0
49
-6.35
74
0
49
12.7
74
0
49
-6.35
74
0
49
0
74
0
49
-6.35
74
0
0
LTYPE
5
3F
330
5
100
AcDbSymbolTableRecord
100
AcDbLinetypeTableRecord
2
BORDER2
70
0
3
Border (.5x) __.__.__.__.__.__.__.__.__.__.__.
72
65
73
6
40
22.225
49
6.35
74
0
49
-3.175
74
0
49
6.35
74
0
49
-3.175
74
0
49
0
74
0
49
-3.175
74
0
0
LTYPE
5
40
330
5
100
AcDbSymbolTableRecord
100
AcDbLinetypeTableRecord
2
BORDERX2
70
0
3
Border (2x) ____  ____  .  ____  ____  .  ___
72
65
73
6
40
88.9
49
25.4
74
0
49
-12.7
74
0
49
25.4
74
0
49
-12.7
74
0
49
0
74
0
49
-12.7
74
0
0
LTYPE
5
41
330
5
100
AcDbSymbolTableRecord
100
AcDbLinetypeTableRecord
2
CENTER
70
0
3
Center ____ _ ____ _ ____ _ ____ _ ____ _ ____
72
65
73
4
40
50.8
49
31.75
74
0
49
-6.35
74
0
49
6.35
74
0
49
-6.35
74
0
0
LTYPE
5
42
330
5
100
AcDbSymbolTableRecord
100
AcDbLinetypeTableRecord
2
CENTER2
70
0
3
Center (.5x) ___ _ ___ _ ___ _ ___ _ ___ _ ___
72
65
73
4
40
28.575
49
19.05
74
0
49
-3.175
74
0
49
3.175
74
0
49
-3.175
74
0
0
LTYPE
5
43
330
5
100
AcDbSymbolTableRecord
100
AcDbLinetypeTableRecord
2
CENTERX2
70
0
3
Center (2x) ________  __  ________  __  _____
72
65
73
4
40
101.6
49
63.5
74
0
49
-12.7
74
0
49
12.7
74
0
49
-12.7
74
0
0
ENDTAB
0
TABLE
2
LAYER
5
2
330
0
100
AcDbSymbolTable
70
1
0
LAYER
5
10
330
2
100
AcDbSymbolTableRecord
100
AcDbLayerTableRecord
2
0
70
0
62
7
6
CONTINUOUS
370
-3
390
F
0
LAYER
5
44
330
2
100
AcDbSymbolTableRecord
100
AcDbLayerTableRecord
2
BACKGROUND
70
1
62
256
6
CONTINUOUS
370
-3
390
F
0
LAYER
5
45
330
2
100
AcDbSymbolTableRecord
100
AcDbLayerTableRecord
2
FOREGROUND
70
0
62
7
6
CONTINUOUS
370
-3
390
F
0
LAYER
5
46
330
2
100
AcDbSymbolTableRecord
100
AcDbLayerTableRecord
2
PLAN_1
70
0
62
7
6
CONTINUOUS
370
-3
390
F
0
LAYER
5
47
330
2
100
AcDbSymbolTableRecord
100
AcDbLayerTableRecord
2
SPLINE
70
0
62
7
6
CONTINUOUS
370
-3
390
F
0
ENDTAB
0
TABLE
2
STYLE
5
3
330
0
100
AcDbSymbolTable
70
3
0
STYLE
5
48
330
2
100
AcDbSymbolTableRecord
100
AcDbTextStyleTableRecord
2
Standard
70
0
40
0
41
1
50
0
71
0
42
1
3
txt
4

0
ENDTAB
0
TABLE
2
VIEW
5
6
330
0
100
AcDbSymbolTable
70
0
0
ENDTAB
0
TABLE
2
UCS
5
7
330
0
100
AcDbSymbolTable
70
0
0
ENDTAB
0
TABLE
2
APPID
5
9
330
0
100
AcDbSymbolTable
70
1
0
APPID
5
12
330
9
100
AcDbSymbolTableRecord
100
AcDbRegAppTableRecord
2
ACAD
70
0
0
ENDTAB
0
TABLE
2
DIMSTYLE
5
A
330
0
100
AcDbSymbolTable
70
1
100
AcDbDimStyleTable
71
1
0
DIMSTYLE
105
49
330
A
100
AcDbSymbolTableRecord
100
AcDbDimStyleTableRecord
2
Standard
70
0
40
1
41
0.18
42
0.0625
43
0.38
44
0.18
45
0
46
0
47
0
48
0
140
0.18
141
0.09
142
0
143
25.4
144
1
145
0
146
1
147
0.09
148
0
71
0
72
0
73
0
74
1
75
0
76
0
77
0
78
0
79
0
170
0
171
2
172
0
173
0
174
0
175
0
176
0
177
0
178
0
179
0
271
4
272
4
273
2
274
2
275
0
276
0
277
2
278
46
279
0
280
0
281
0
282
0
283
1
284
0
285
0
286
0
288
0
289
3
340
Standard
341

371
-2
372
-2
0
ENDTAB
0
TABLE
2
BLOCK_RECORD
5
1
330
0
100
AcDbSymbolTable
70
2
0
BLOCK_RECORD
5
1F
330
1
100
AcDbSymbolTableRecord
100
AcDbBlockTableRecord
2
*Model_Space
70
0
280
1
281
0
0
BLOCK_RECORD
5
1E
330
1
100
AcDbSymbolTableRecord
100
AcDbBlockTableRecord
2
*Paper_Space
70
0
280
1
281
0
0
ENDTAB
0
ENDSEC
0
SECTION
2
BLOCKS
0
BLOCK
5
20
330
1F
100
AcDbEntity
8
0
100
AcDbBlockBegin
2
*Model_Space
70
0
10
0
20
0
30
0
3
*Model_Space
1

0
ENDBLK
5
21
330
1F
100
AcDbEntity
8
0
100
AcDbBlockEnd
0
BLOCK
5
1C
330
1B
100
AcDbEntity
8
0
100
AcDbBlockBegin
2
*Paper_Space
70
0
10
0
20
0
30
0
3
*Paper_Space
1

0
ENDBLK
5
1D
330
1F
100
AcDbEntity
8
0
100
AcDbBlockEnd
0
ENDSEC
0
SECTION
2
ENTITIES
0
LWPOLYLINE
5
4A
100
AcDbEntity
8
0
6
ByLayer
62
7
370
-1
100
AcDbPolyline
90
99
70
0
43
0
10
336.350891
20
87.94696
10
336.775391
20
86.989693
10
337.174622
20
86.021622
10
337.548462
20
85.043442
10
337.896484
20
84.055832
10
338.218628
20
83.05941
10
338.514526
20
82.054932
10
338.783997
20
81.043022
10
339.026917
20
80.024422
10
339.243103
20
78.999832
10
339.432373
20
77.969902
10
339.594666
20
76.935371
10
339.729797
20
75.89698
10
339.837646
20
74.855362
10
339.918274
20
73.811302
10
339.971497
20
72.765511
10
339.997314
20
71.718651
10
340
20
71.255241
10
340
20
25
10
339.980957
20
24.56422
10
339.924011
20
24.131741
10
339.829651
20
23.705891
10
339.698486
20
23.28989
10
339.531555
20
22.88689
10
339.330139
20
22.5
10
339.095764
20
22.132111
10
338.8302
20
21.78606
10
338.535522
20
21.464451
10
338.213928
20
21.16975
10
337.867859
20
20.904221
10
337.5
20
20.669861
10
337.113098
20
20.46846
10
336.710083
20
20.30151
10
336.294067
20
20.170361
10
335.868225
20
20.075951
10
335.435791
20
20.01902
10
335
20
20
10
195
20
20
10
194.564194
20
20.01902
10
194.131744
20
20.075951
10
193.705902
20
20.170361
10
193.289886
20
20.30151
10
192.886902
20
20.46846
10
192.5
20
20.669861
10
192.132111
20
20.904221
10
191.786072
20
21.16975
10
191.464478
20
21.464451
10
191.169754
20
21.78606
10
190.904236
20
22.132111
10
190.669861
20
22.5
10
190.468475
20
22.88689
10
190.301544
20
23.28989
10
190.170364
20
23.705891
10
190.075943
20
24.131741
10
190.019012
20
24.56422
10
190
20
25
10
190
20
271
10
190.019012
20
271.435791
10
190.075943
20
271.868225
10
190.170364
20
272.294098
10
190.301544
20
272.710114
10
190.468475
20
273.113098
10
190.669861
20
273.5
10
190.904236
20
273.867889
10
191.169754
20
274.213928
10
191.464478
20
274.535522
10
191.786072
20
274.830231
10
192.132111
20
275.095764
10
192.5
20
275.330139
10
192.886902
20
275.531525
10
193.289886
20
275.698456
10
193.705902
20
275.82962
10
194.131744
20
275.924042
10
194.564194
20
275.980988
10
195
20
276
10
240.381943
20
276
10
241.166992
20
275.979431
10
241.94989
20
275.917816
10
242.728485
20
275.815338
10
243.500641
20
275.672211
10
244.264252
20
275.488892
10
245.017212
20
275.265839
10
245.757477
20
275.003723
10
246.483002
20
274.703186
10
247.191803
20
274.365112
10
247.881943
20
273.990387
10
248.551544
20
273.580048
10
249.19873
20
273.135254
10
249.821747
20
272.657196
10
250.418915
20
272.147186
10
250.988556
20
271.606598
10
251.529114
20
271.036957
10
252.039124
20
270.439819
10
252.517212
20
269.816772
10
252.962036
20
269.169586
10
253.372314
20
268.5
10
253.74707
20
267.809875
10
254.013535
20
267.259399
10
336.350891
20
87.94696
0
CIRCLE
5
4B
100
AcDbEntity
8
PLAN_1
6
ByLayer
62
7
370
-1
100
AcDbCircle
10
320
20
55
40
2
0
CIRCLE
5
4C
100
AcDbEntity
8
PLAN_1
6
ByLayer
62
7
370
-1
100
AcDbCircle
10
265
20
55
40
2
0
ARC
5
4D
100
AcDbEntity
8
PLAN_1
6
ByLayer
62
7
370
-1
100
AcDbCircle
10
210
20
55
40
2
100
AcDbArc
50
179.999985
51
180
0
CIRCLE
5
4E
100
AcDbEntity
8
PLAN_1
6
ByLayer
62
7
370
-1
100
AcDbCircle
10
220
20
256
40
4
0
CIRCLE
5
4F
100
AcDbEntity
8
PLAN_1
6
ByLayer
62
7
370
-1
100
AcDbCircle
10
220
20
156
40
4
0
CIRCLE
5
50
100
AcDbEntity
8
PLAN_1
6
ByLayer
62
7
370
-1
100
AcDbCircle
10
220
20
206
40
11
0
CIRCLE
5
51
100
AcDbEntity
8
PLAN_1
6
ByLayer
62
7
370
-1
100
AcDbCircle
10
220
20
206
40
7.99991
0
LWPOLYLINE
5
52
100
AcDbEntity
8
0
6
ByLayer
62
7
370
-1
100
AcDbPolyline
90
5
70
0
43
0
10
264
20
200
10
280
20
200
10
280
20
150
10
264
20
150
10
264
20
200
0
CIRCLE
5
53
100
AcDbEntity
8
PLAN_1
6
ByLayer
62
7
370
-1
100
AcDbCircle
10
232.5
20
156
40
1.6
0
CIRCLE
5
54
100
AcDbEntity
8
PLAN_1
6
ByLayer
62
7
370
-1
100
AcDbCircle
10
207.5
20
156
40
1.60001
0
CIRCLE
5
55
100
AcDbEntity
8
PLAN_1
6
ByLayer
62
7
370
-1
100
AcDbCircle
10
232.5
20
256
40
1.6
0
CIRCLE
5
56
100
AcDbEntity
8
PLAN_1
6
ByLayer
62
7
370
-1
100
AcDbCircle
10
207.5
20
256
40
1.60001
0
LWPOLYLINE
5
57
100
AcDbEntity
8
0
6
ByLayer
62
7
370
-1
100
AcDbPolyline
90
99
70
0
43
0
10
33.649101
20
87.94696
10
33.224602
20
86.989693
10
32.825371
20
86.021622
10
32.45153
20
85.043442
10
32.103512
20
84.055832
10
31.78137
20
83.05941
10
31.48546
20
82.054932
10
31.21599
20
81.043022
10
30.97307
20
80.024422
10
30.75688
20
78.999832
10
30.56761
20
77.969902
10
30.405331
20
76.935371
10
30.270201
20
75.89698
10
30.16234
20
74.855362
10
30.08172
20
73.811302
10
30.02849
20
72.765511
10
30.00267
20
71.718651
10
30
20
71.255241
10
30
20
25
10
30.01903
20
24.56422
10
30.07597
20
24.131741
10
30.17033
20
23.705891
10
30.3015
20
23.28989
10
30.46843
20
22.88689
10
30.669861
20
22.5
10
30.90423
20
22.132111
10
31.16979
20
21.78606
10
31.46446
20
21.464451
10
31.78606
20
21.16975
10
32.132141
20
20.904221
10
32.5
20
20.669861
10
32.886902
20
20.46846
10
33.289902
20
20.30151
10
33.705921
20
20.170361
10
34.131771
20
20.075951
10
34.564201
20
20.01902
10
35
20
20
10
175
20
20
10
175.435791
20
20.01902
10
175.868256
20
20.075951
10
176.294083
20
20.170361
10
176.710114
20
20.30151
10
177.113083
20
20.46846
10
177.5
20
20.669861
10
177.867874
20
20.904221
10
178.213913
20
21.16975
10
178.535522
20
21.464451
10
178.830231
20
21.78606
10
179.095764
20
22.132111
10
179.330124
20
22.5
10
179.531525
20
22.88689
10
179.698456
20
23.28989
10
179.82962
20
23.705891
10
179.924042
20
24.131741
10
179.980988
20
24.56422
10
180
20
25
10
180
20
271
10
179.980988
20
271.435791
10
179.924042
20
271.868225
10
179.82962
20
272.294098
10
179.698456
20
272.710114
10
179.531525
20
273.113098
10
179.330124
20
273.5
10
179.095764
20
273.867889
10
178.830231
20
274.213928
10
178.535522
20
274.535522
10
178.213913
20
274.830231
10
177.867874
20
275.095764
10
177.5
20
275.330139
10
177.113083
20
275.531525
10
176.710114
20
275.698456
10
176.294083
20
275.82962
10
175.868256
20
275.924042
10
175.435791
20
275.980988
10
175
20
276
10
129.618042
20
276
10
128.832993
20
275.979431
10
128.050095
20
275.917816
10
127.2715
20
275.815338
10
126.499352
20
275.672211
10
125.735741
20
275.488892
10
124.98278
20
275.265839
10
124.242523
20
275.003723
10
123.516991
20
274.703186
10
122.808182
20
274.365112
10
122.118042
20
273.990387
10
121.448441
20
273.580048
10
120.801262
20
273.135254
10
120.178253
20
272.657196
10
119.58107
20
272.147186
10
119.011429
20
271.606598
10
118.470871
20
271.036957
10
117.960861
20
270.439819
10
117.48278
20
269.816772
10
117.037949
20
269.169586
10
116.62767
20
268.5
10
116.252922
20
267.809875
10
115.98645
20
267.259399
10
33.649101
20
87.94696
0
CIRCLE
5
58
100
AcDbEntity
8
PLAN_1
6
ByLayer
62
7
370
-1
100
AcDbCircle
10
50
20
55
40
2
0
CIRCLE
5
59
100
AcDbEntity
8
PLAN_1
6
ByLayer
62
7
370
-1
100
AcDbCircle
10
105
20
55
40
2
0
CIRCLE
5
5A
100
AcDbEntity
8
PLAN_1
6
ByLayer
62
7
370
-1
100
AcDbCircle
10
160
20
55
40
2
0
CIRCLE
5
5B
100
AcDbEntity
8
PLAN_1
6
ByLayer
62
7
370
-1
100
AcDbCircle
10
150
20
256
40
4
0
CIRCLE
5
5C
100
AcDbEntity
8
PLAN_1
6
ByLayer
62
7
370
-1
100
AcDbCircle
10
150
20
156
40
4
0
CIRCLE
5
5D
100
AcDbEntity
8
PLAN_1
6
ByLayer
62
7
370
-1
100
AcDbCircle
10
150
20
206
40
11
0
CIRCLE
5
5E
100
AcDbEntity
8
PLAN_1
6
ByLayer
62
7
370
-1
100
AcDbCircle
10
150
20
206
40
7.99991
0
CIRCLE
5
5F
100
AcDbEntity
8
PLAN_1
6
ByLayer
62
7
370
-1
100
AcDbCircle
10
134.5
20
221.5
40
2.00045
0
CIRCLE
5
60
100
AcDbEntity
8
PLAN_1
6
ByLayer
62
7
370
-1
100
AcDbCircle
10
165.5
20
221.5
40
2.00045
0
CIRCLE
5
61
100
AcDbEntity
8
PLAN_1
6
ByLayer
62
7
370
-1
100
AcDbCircle
10
165.5
20
190.5
40
2.00045
0
CIRCLE
5
62
100
AcDbEntity
8
PLAN_1
6
ByLayer
62
7
370
-1
100
AcDbCircle
10
134.5
20
190.5
40
2.00763
0
LWPOLYLINE
5
63
100
AcDbEntity
8
0
6
ByLayer
62
7
370
-1
100
AcDbPolyline
90
5
70
0
43
0
10
106
20
200
10
90
20
200
10
90
20
150
10
106
20
150
10
106
20
200
0
CIRCLE
5
64
100
AcDbEntity
8
PLAN_1
6
ByLayer
62
7
370
-1
100
AcDbCircle
10
137.5
20
156
40
1.6
0
CIRCLE
5
65
100
AcDbEntity
8
PLAN_1
6
ByLayer
62
7
370
-1
100
AcDbCircle
10
162.5
20
156
40
1.60001
0
CIRCLE
5
66
100
AcDbEntity
8
PLAN_1
6
ByLayer
62
7
370
-1
100
AcDbCircle
10
137.5
20
256
40
1.6
0
CIRCLE
5
67
100
AcDbEntity
8
PLAN_1
6
ByLayer
62
7
370
-1
100
AcDbCircle
10
162.5
20
256
40
1.60001
0
CIRCLE
5
68
100
AcDbEntity
8
PLAN_1
6
ByLayer
62
7
370
-1
100
AcDbCircle
10
230
20
120
40
1.59999
0
CIRCLE
5
69
100
AcDbEntity
8
PLAN_1
6
ByLayer
62
7
370
-1
100
AcDbCircle
10
290
20
120
40
1.6
0
CIRCLE
5
6A
100
AcDbEntity
8
PLAN_1
6
ByLayer
62
7
370
-1
100
AcDbCircle
10
140
20
120
40
1.59999
0
CIRCLE
5
6B
100
AcDbEntity
8
PLAN_1
6
ByLayer
62
7
370
-1
100
AcDbCircle
10
80
20
120
40
1.59999
0
ENDSEC
0
SECTION
2
OBJECTS
0
DICTIONARY
5
C
330
0
100
AcDbDictionary
281
1
3
ACAD_GROUP
350
D
0
DICTIONARY
5
D
330
C
100
AcDbDictionary
281
1
0
ENDSEC
0
EOF
